<?xml version="1.0" encoding="utf-8"?>
<!-- Generator: Adobe Illustrator 21.1.0, SVG Export Plug-In . SVG Version: 6.00 Build 0)  -->
<svg version="1.1" id="Слой_1" xmlns="http://www.w3.org/2000/svg" xmlns:xlink="http://www.w3.org/1999/xlink" x="0px" y="0px"
	 viewBox="0 0 200 200" style="enable-background:new 0 0 200 200;" xml:space="preserve">
<style type="text/css">
	.st0{fill:#8ACEB6;}
</style>
<g>
	<g>
		<path class="st0" d="M38.502,190.708C89.126,140.084,139.75,89.459,190.374,38.835c6.482-6.482,6.965-18.355,0-24.749
			c-6.986-6.413-17.832-6.917-24.749,0c-16.755,16.755-33.51,33.51-50.264,50.264c-6.482,6.482-6.965,18.355,0,24.749
			c6.986,6.413,17.832,6.917,24.749,0c16.755-16.755,33.51-33.51,50.264-50.264c-8.25-8.25-16.499-16.499-24.749-24.749
			C115.001,64.711,64.377,115.335,13.753,165.959c-6.482,6.482-6.965,18.355,0,24.749C20.739,197.121,31.585,197.625,38.502,190.708
			L38.502,190.708z"/>
	</g>
</g>
<g>
	<g>
		<path class="st0" d="M13.753,38.835c50.624,50.624,101.248,101.248,151.873,151.873c6.482,6.482,18.355,6.965,24.749,0
			c6.413-6.986,6.917-17.832,0-24.749C139.75,115.335,89.126,64.711,38.502,14.086c-6.482-6.482-18.355-6.965-24.749,0
			C7.34,21.072,6.836,31.918,13.753,38.835L13.753,38.835z"/>
	</g>
</g>
</svg>
