<?xml version="1.0" encoding="utf-8"?>
<!-- Generator: Adobe Illustrator 21.1.0, SVG Export Plug-In . SVG Version: 6.00 Build 0)  -->
<svg version="1.1" id="Слой_1" xmlns="http://www.w3.org/2000/svg" xmlns:xlink="http://www.w3.org/1999/xlink" x="0px" y="0px"
	 viewBox="0 0 200 200" style="enable-background:new 0 0 200 200;" xml:space="preserve">
<style type="text/css">
	.st0{fill:#8ACEB6;}
</style>
<g>
	<g>
		<path class="st0" d="M76.47,190.708c25.312-25.312,50.624-50.624,75.936-75.936c6.482-6.482,6.965-18.355,0-24.749
			c-6.986-6.413-17.832-6.917-24.749,0c-8.377,8.377-16.755,16.755-25.132,25.132c-6.482,6.482-6.965,18.355,0,24.749
			c6.986,6.413,17.832,6.917,24.749,0c8.377-8.377,16.755-16.755,25.132-25.132c-8.25-8.25-16.499-16.499-24.749-24.749
			c-25.312,25.312-50.624,50.624-75.936,75.936c-6.482,6.482-6.965,18.355,0,24.749C58.707,197.121,69.553,197.625,76.47,190.708
			L76.47,190.708z"/>
	</g>
</g>
<g>
	<g>
		<path class="st0" d="M51.721,38.835c25.312,25.312,50.624,50.624,75.936,75.936c6.482,6.482,18.355,6.965,24.749,0
			c6.413-6.986,6.917-17.832,0-24.749c-25.312-25.312-50.624-50.624-75.936-75.936c-6.482-6.482-18.355-6.965-24.749,0
			C45.308,21.072,44.804,31.918,51.721,38.835L51.721,38.835z"/>
	</g>
</g>
</svg>
